<?xml version="1.0" encoding="UTF-8" standalone="no"?>
<svg
   xmlns:dc="http://purl.org/dc/elements/1.1/"
   xmlns:cc="http://creativecommons.org/ns#"
   xmlns:rdf="http://www.w3.org/1999/02/22-rdf-syntax-ns#"
   xmlns:svg="http://www.w3.org/2000/svg"
   xmlns="http://www.w3.org/2000/svg"
   xmlns:sodipodi="http://sodipodi.sourceforge.net/DTD/sodipodi-0.dtd"
   xmlns:inkscape="http://www.inkscape.org/namespaces/inkscape"
   sodipodi:docname="7C.pdf"
   viewBox="0 0 240 336"
   height="336"
   width="240"
   xml:space="preserve"
   id="svg2"
   version="1.1"><metadata
     id="metadata8"><rdf:RDF><cc:Work
         rdf:about=""><dc:format>image/svg+xml</dc:format><dc:type
           rdf:resource="http://purl.org/dc/dcmitype/StillImage" /></cc:Work></rdf:RDF></metadata><defs
     id="defs6" /><sodipodi:namedview
     id="namedview4"
     inkscape:window-height="480"
     inkscape:window-width="640"
     inkscape:pageshadow="2"
     inkscape:pageopacity="0"
     guidetolerance="10"
     gridtolerance="10"
     objecttolerance="10"
     borderopacity="1"
     bordercolor="#666666"
     pagecolor="#ffffff" /><g
     transform="matrix(1.3333333,0,0,1.3333333,0,8.4e-6)"
     inkscape:label="7C"
     inkscape:groupmode="layer"
     id="g10"><g
       id="g12"><g
         id="g14"><path
           id="path16"
           style="fill:#ffffff;fill-opacity:1;fill-rule:nonzero;stroke:#000000;stroke-width:0.75;stroke-linecap:butt;stroke-linejoin:miter;stroke-miterlimit:4;stroke-dasharray:none;stroke-opacity:1"
           d="m 9.375,0.375 h 161.25 c 4.984,0 9,4.016 9,9 v 233.25 c 0,4.984 -4.016,9 -9,9 H 9.375 c -4.984,0 -9,-4.016 -9,-9 V 9.375 c 0,-4.984 4.016,-9 9,-9 z" /></g><g
         id="g18"><path
           id="path20"
           style="fill:#ffffcc;fill-opacity:1;fill-rule:nonzero;stroke:#8888ff;stroke-width:0.75;stroke-linecap:butt;stroke-linejoin:miter;stroke-miterlimit:4;stroke-dasharray:none;stroke-opacity:1"
           d="m 51,51 h 78 V 201 H 51 Z" /></g><g
         id="g22"><path
           id="path24"
           style="fill:none;stroke:#008000;stroke-width:4.2;stroke-linecap:square;stroke-linejoin:miter;stroke-miterlimit:1.5;stroke-dasharray:none;stroke-opacity:1"
           d="M 10.836,18.449 V 11.102 H 38.664 C 31.836,24.75 20.023,40.5 20.023,59.398" /></g><path
         id="path26"
         style="fill:#008000;fill-opacity:1;fill-rule:nonzero;stroke:none"
         d="m 25.848,92.699 c 0.183,8.602 2.011,9.149 3.66,12.809 h -9.516 c 1.649,-3.66 3.477,-4.207 3.66,-12.809 0,-0.488 -0.73,-0.488 -0.73,0 -0.629,3.406 -3.457,5.969 -6.906,6.262 -3.45,0.297 -6.672,-1.75 -7.868,-5 -1.195,-3.25 -0.07,-6.899 2.747,-8.91 2.816,-2.012 6.632,-1.895 9.316,0.293 0.34,0.254 0.766,-0.176 0.512,-0.512 -3.379,-1.844 -5.078,-5.742 -4.129,-9.473 0.949,-3.73 4.308,-6.339 8.156,-6.339 3.848,0 7.207,2.609 8.156,6.339 0.949,3.731 -0.75,7.629 -4.129,9.473 -0.254,0.336 0.172,0.766 0.512,0.512 2.684,-2.188 6.5,-2.305 9.316,-0.293 2.817,2.011 3.942,5.66 2.747,8.91 -1.196,3.25 -4.418,5.297 -7.868,5 -3.449,-0.293 -6.277,-2.856 -6.906,-6.262 0,-0.488 -0.73,-0.488 -0.73,0 z" /><path
         id="path28"
         style="fill:#008000;fill-opacity:1;fill-rule:nonzero;stroke:none"
         d="m 67.164,70.961 c 0.125,5.875 1.375,6.25 2.5,8.75 h -6.5 c 1.125,-2.5 2.375,-2.875 2.5,-8.75 0,-0.332 -0.5,-0.332 -0.5,0 -0.969,5.25 -8.246,5.875 -10.09,0.863 -1.847,-5.012 4.098,-9.258 8.238,-5.886 0.231,0.171 0.524,-0.122 0.352,-0.352 -2.309,-1.258 -3.473,-3.918 -2.824,-6.469 0.648,-2.547 2.945,-4.328 5.574,-4.328 2.629,0 4.922,1.781 5.57,4.328 0.649,2.551 -0.511,5.211 -2.82,6.469 -0.176,0.23 0.117,0.523 0.348,0.352 4.144,-3.372 10.086,0.874 8.242,5.886 -1.848,5.012 -9.121,4.387 -10.09,-0.863 0,-0.332 -0.5,-0.332 -0.5,0 z" /><path
         id="path30"
         style="fill:#008000;fill-opacity:1;fill-rule:nonzero;stroke:none"
         d="m 114.336,70.961 c 0.125,5.875 1.375,6.25 2.5,8.75 h -6.5 c 1.125,-2.5 2.375,-2.875 2.5,-8.75 0,-0.332 -0.5,-0.332 -0.5,0 -0.969,5.25 -8.242,5.875 -10.09,0.863 -1.844,-5.012 4.098,-9.258 8.242,-5.886 0.231,0.171 0.524,-0.122 0.348,-0.352 -2.309,-1.258 -3.469,-3.918 -2.82,-6.469 0.648,-2.547 2.941,-4.328 5.57,-4.328 2.629,0 4.926,1.781 5.574,4.328 0.649,2.551 -0.515,5.211 -2.824,6.469 -0.172,0.23 0.121,0.523 0.352,0.352 4.14,-3.372 10.085,0.874 8.238,5.886 -1.844,5.012 -9.121,4.387 -10.09,-0.863 0,-0.332 -0.5,-0.332 -0.5,0 z" /><path
         id="path32"
         style="fill:#008000;fill-opacity:1;fill-rule:nonzero;stroke:none"
         d="m 67.164,129.75 c 0.125,5.875 1.375,6.25 2.5,8.75 h -6.5 c 1.125,-2.5 2.375,-2.875 2.5,-8.75 0,-0.332 -0.5,-0.332 -0.5,0 -0.969,5.25 -8.246,5.871 -10.09,0.863 -1.847,-5.011 4.098,-9.258 8.238,-5.886 0.231,0.171 0.524,-0.122 0.352,-0.352 -2.309,-1.258 -3.473,-3.922 -2.824,-6.469 0.648,-2.547 2.945,-4.332 5.574,-4.332 2.629,0 4.922,1.785 5.57,4.332 0.649,2.547 -0.511,5.211 -2.82,6.469 -0.176,0.23 0.117,0.523 0.348,0.352 4.144,-3.372 10.086,0.875 8.242,5.886 -1.848,5.008 -9.121,4.387 -10.09,-0.863 0,-0.332 -0.5,-0.332 -0.5,0 z" /><path
         id="path34"
         style="fill:#008000;fill-opacity:1;fill-rule:nonzero;stroke:none"
         d="m 114.336,129.75 c 0.125,5.875 1.375,6.25 2.5,8.75 h -6.5 c 1.125,-2.5 2.375,-2.875 2.5,-8.75 0,-0.332 -0.5,-0.332 -0.5,0 -0.969,5.25 -8.242,5.871 -10.09,0.863 -1.844,-5.011 4.098,-9.258 8.242,-5.886 0.231,0.171 0.524,-0.122 0.348,-0.352 -2.309,-1.258 -3.469,-3.922 -2.82,-6.469 0.648,-2.547 2.941,-4.332 5.57,-4.332 2.629,0 4.926,1.785 5.574,4.332 0.649,2.547 -0.515,5.211 -2.824,6.469 -0.172,0.23 0.121,0.523 0.352,0.352 4.14,-3.372 10.085,0.875 8.238,5.886 -1.844,5.008 -9.121,4.387 -10.09,-0.863 0,-0.332 -0.5,-0.332 -0.5,0 z" /><path
         id="path36"
         style="fill:#008000;fill-opacity:1;fill-rule:nonzero;stroke:none"
         d="m 90.75,100.355 c 0.125,5.875 1.375,6.25 2.5,8.75 h -6.5 c 1.125,-2.5 2.375,-2.875 2.5,-8.75 0,-0.332 -0.5,-0.332 -0.5,0 -0.969,5.25 -8.246,5.872 -10.09,0.864 -1.844,-5.012 4.098,-9.258 8.238,-5.887 0.235,0.172 0.524,-0.121 0.352,-0.352 -2.309,-1.257 -3.473,-3.921 -2.82,-6.468 0.648,-2.547 2.941,-4.332 5.57,-4.332 2.629,0 4.922,1.785 5.57,4.332 0.653,2.547 -0.511,5.211 -2.82,6.468 -0.172,0.231 0.117,0.524 0.352,0.352 4.14,-3.371 10.082,0.875 8.238,5.887 -1.844,5.008 -9.121,4.386 -10.09,-0.864 0,-0.332 -0.5,-0.332 -0.5,0 z" /><g
         transform="scale(-1)"
         id="g38"><path
           id="path40"
           style="fill:none;stroke:#008000;stroke-width:4.2;stroke-linecap:square;stroke-linejoin:miter;stroke-miterlimit:1.5;stroke-dasharray:none;stroke-opacity:1"
           d="m -169.164,-233.551 v -7.347 h 27.828 c -6.828,13.648 -18.641,29.398 -18.641,48.296" /></g><path
         id="path42"
         style="fill:#008000;fill-opacity:1;fill-rule:nonzero;stroke:none"
         d="m 154.152,159.301 c -0.183,-8.602 -2.011,-9.149 -3.66,-12.809 h 9.516 c -1.649,3.66 -3.477,4.207 -3.66,12.809 0,0.488 0.73,0.488 0.73,0 0.629,-3.406 3.457,-5.969 6.906,-6.262 3.45,-0.297 6.672,1.75 7.868,5 1.195,3.25 0.07,6.899 -2.747,8.91 -2.816,2.012 -6.632,1.895 -9.316,-0.293 -0.34,-0.254 -0.766,0.176 -0.512,0.512 3.379,1.844 5.078,5.742 4.129,9.473 -0.949,3.73 -4.308,6.339 -8.156,6.339 -3.848,0 -7.207,-2.609 -8.156,-6.339 -0.949,-3.731 0.75,-7.629 4.129,-9.473 0.254,-0.336 -0.172,-0.766 -0.512,-0.512 -2.684,2.188 -6.5,2.305 -9.316,0.293 -2.817,-2.011 -3.942,-5.66 -2.747,-8.91 1.196,-3.25 4.418,-5.297 7.868,-5 3.449,0.293 6.277,2.856 6.906,6.262 0,0.488 0.73,0.488 0.73,0 z" /><path
         id="path44"
         style="fill:#008000;fill-opacity:1;fill-rule:nonzero;stroke:none"
         d="m 112.836,181.039 c -0.125,-5.875 -1.375,-6.25 -2.5,-8.75 h 6.5 c -1.125,2.5 -2.375,2.875 -2.5,8.75 0,0.332 0.5,0.332 0.5,0 0.969,-5.25 8.246,-5.875 10.09,-0.863 1.847,5.012 -4.098,9.258 -8.238,5.886 -0.231,-0.171 -0.524,0.122 -0.352,0.352 2.309,1.258 3.473,3.918 2.824,6.469 -0.648,2.547 -2.945,4.328 -5.574,4.328 -2.629,0 -4.922,-1.781 -5.57,-4.328 -0.649,-2.551 0.511,-5.211 2.82,-6.469 0.176,-0.23 -0.117,-0.523 -0.348,-0.352 -4.144,3.372 -10.086,-0.874 -8.242,-5.886 1.848,-5.012 9.121,-4.387 10.09,0.863 0,0.332 0.5,0.332 0.5,0 z" /><path
         id="path46"
         style="fill:#008000;fill-opacity:1;fill-rule:nonzero;stroke:none"
         d="m 65.664,181.039 c -0.125,-5.875 -1.375,-6.25 -2.5,-8.75 h 6.5 c -1.125,2.5 -2.375,2.875 -2.5,8.75 0,0.332 0.5,0.332 0.5,0 0.969,-5.25 8.242,-5.875 10.09,-0.863 1.844,5.012 -4.098,9.258 -8.242,5.886 -0.231,-0.171 -0.524,0.122 -0.348,0.352 2.309,1.258 3.469,3.918 2.82,6.469 -0.648,2.547 -2.941,4.328 -5.57,4.328 -2.629,0 -4.926,-1.781 -5.574,-4.328 -0.649,-2.551 0.515,-5.211 2.824,-6.469 0.172,-0.23 -0.121,-0.523 -0.352,-0.352 -4.14,3.372 -10.085,-0.874 -8.238,-5.886 1.844,-5.012 9.121,-4.387 10.09,0.863 0,0.332 0.5,0.332 0.5,0 z" /></g></g></svg>
