<?xml version="1.0" encoding="UTF-8" standalone="no"?>
<svg
   xmlns:dc="http://purl.org/dc/elements/1.1/"
   xmlns:cc="http://creativecommons.org/ns#"
   xmlns:rdf="http://www.w3.org/1999/02/22-rdf-syntax-ns#"
   xmlns:svg="http://www.w3.org/2000/svg"
   xmlns="http://www.w3.org/2000/svg"
   xmlns:sodipodi="http://sodipodi.sourceforge.net/DTD/sodipodi-0.dtd"
   xmlns:inkscape="http://www.inkscape.org/namespaces/inkscape"
   sodipodi:docname="8H.pdf"
   viewBox="0 0 240 336"
   height="336"
   width="240"
   xml:space="preserve"
   id="svg2"
   version="1.1"><metadata
     id="metadata8"><rdf:RDF><cc:Work
         rdf:about=""><dc:format>image/svg+xml</dc:format><dc:type
           rdf:resource="http://purl.org/dc/dcmitype/StillImage" /></cc:Work></rdf:RDF></metadata><defs
     id="defs6" /><sodipodi:namedview
     id="namedview4"
     inkscape:window-height="480"
     inkscape:window-width="640"
     inkscape:pageshadow="2"
     inkscape:pageopacity="0"
     guidetolerance="10"
     gridtolerance="10"
     objecttolerance="10"
     borderopacity="1"
     bordercolor="#666666"
     pagecolor="#ffffff" /><g
     transform="matrix(1.3333333,0,0,1.3333333,0,8.4e-6)"
     inkscape:label="8H"
     inkscape:groupmode="layer"
     id="g10"><g
       id="g12"><g
         id="g14"><path
           id="path16"
           style="fill:#ffffff;fill-opacity:1;fill-rule:nonzero;stroke:#000000;stroke-width:0.75;stroke-linecap:butt;stroke-linejoin:miter;stroke-miterlimit:4;stroke-dasharray:none;stroke-opacity:1"
           d="m 9.375,0.375 h 161.25 c 4.984,0 9,4.016 9,9 v 233.25 c 0,4.984 -4.016,9 -9,9 H 9.375 c -4.984,0 -9,-4.016 -9,-9 V 9.375 c 0,-4.984 4.016,-9 9,-9 z" /></g><g
         id="g18"><path
           id="path20"
           style="fill:#ffffcc;fill-opacity:1;fill-rule:nonzero;stroke:#8888ff;stroke-width:0.75;stroke-linecap:butt;stroke-linejoin:miter;stroke-miterlimit:4;stroke-dasharray:none;stroke-opacity:1"
           d="m 51,51 h 78 V 201 H 51 Z" /></g><g
         id="g22"><path
           id="path24"
           style="fill:none;stroke:#a50101;stroke-width:4.2;stroke-linecap:square;stroke-linejoin:miter;stroke-miterlimit:1.5;stroke-dasharray:none;stroke-opacity:1"
           d="M 24.699,32.625 C 18.766,32.598 13.973,27.77 13.988,21.836 14.004,15.902 18.816,11.102 24.75,11.102 c 5.934,0 10.746,4.8 10.762,10.734 0.015,5.934 -4.778,10.762 -10.711,10.789 h -0.102 c -7.387,0.027 -13.351,6.031 -13.336,13.414 0.016,7.383 6.004,13.359 13.387,13.359 7.383,0 13.371,-5.976 13.387,-13.359 0.015,-7.383 -5.949,-13.387 -13.336,-13.414 z" /></g><path
         id="path26"
         style="fill:#a50101;fill-opacity:1;fill-rule:nonzero;stroke:none"
         d="m 24.75,76.23 c 0,-3.66 3.66,-7.32 7.32,-7.32 3.66,0 7.321,3.66 7.321,9.149 0,9.152 -14.641,23.789 -14.641,27.449 0,-3.66 -14.641,-18.297 -14.641,-27.449 0,-5.489 3.661,-9.149 7.321,-9.149 3.66,0 7.32,3.66 7.32,7.32 z" /><path
         id="path28"
         style="fill:#a50101;fill-opacity:1;fill-rule:nonzero;stroke:none"
         d="m 64.75,59.75 c 0,-2.5 2.5,-5 5,-5 2.5,0 5,2.5 5,6.25 0,6.25 -10,16.25 -10,18.75 0,-2.5 -10,-12.5 -10,-18.75 0,-3.75 2.5,-6.25 5,-6.25 2.5,0 5,2.5 5,5 z" /><path
         id="path30"
         style="fill:#a50101;fill-opacity:1;fill-rule:nonzero;stroke:none"
         d="m 115.25,59.75 c 0,-2.5 2.5,-5 5,-5 2.5,0 5,2.5 5,6.25 0,6.25 -10,16.25 -10,18.75 0,-2.5 -10,-12.5 -10,-18.75 0,-3.75 2.5,-6.25 5,-6.25 2.5,0 5,2.5 5,5 z" /><path
         id="path32"
         style="fill:#a50101;fill-opacity:1;fill-rule:nonzero;stroke:none"
         d="m 90,89.125 c 0,-2.5 2.5,-5 5,-5 2.5,0 5,2.5 5,6.25 0,6.25 -10,16.25 -10,18.75 0,-2.5 -10,-12.5 -10,-18.75 0,-3.75 2.5,-6.25 5,-6.25 2.5,0 5,2.5 5,5 z" /><path
         id="path34"
         style="fill:#a50101;fill-opacity:1;fill-rule:nonzero;stroke:none"
         d="m 64.75,118.5 c 0,-2.5 2.5,-5 5,-5 2.5,0 5,2.5 5,6.25 0,6.25 -10,16.25 -10,18.75 0,-2.5 -10,-12.5 -10,-18.75 0,-3.75 2.5,-6.25 5,-6.25 2.5,0 5,2.5 5,5 z" /><path
         id="path36"
         style="fill:#a50101;fill-opacity:1;fill-rule:nonzero;stroke:none"
         d="m 115.25,118.5 c 0,-2.5 2.5,-5 5,-5 2.5,0 5,2.5 5,6.25 0,6.25 -10,16.25 -10,18.75 0,-2.5 -10,-12.5 -10,-18.75 0,-3.75 2.5,-6.25 5,-6.25 2.5,0 5,2.5 5,5 z" /><g
         transform="scale(-1)"
         id="g38"><path
           id="path40"
           style="fill:none;stroke:#a50101;stroke-width:4.2;stroke-linecap:square;stroke-linejoin:miter;stroke-miterlimit:1.5;stroke-dasharray:none;stroke-opacity:1"
           d="m -155.301,-219.375 c -5.933,-0.027 -10.726,-4.855 -10.711,-10.789 0.016,-5.934 4.828,-10.734 10.762,-10.734 5.934,0 10.746,4.8 10.762,10.734 0.015,5.934 -4.778,10.762 -10.711,10.789 h -0.102 c -7.387,0.027 -13.351,6.031 -13.336,13.414 0.016,7.383 6.004,13.359 13.387,13.359 7.383,0 13.371,-5.976 13.387,-13.359 0.015,-7.383 -5.949,-13.387 -13.336,-13.414 z" /></g><path
         id="path42"
         style="fill:#a50101;fill-opacity:1;fill-rule:nonzero;stroke:none"
         d="m 155.25,175.77 c 0,3.66 -3.66,7.32 -7.32,7.32 -3.66,0 -7.321,-3.66 -7.321,-9.149 0,-9.152 14.641,-23.789 14.641,-27.449 0,3.66 14.641,18.297 14.641,27.449 0,5.489 -3.661,9.149 -7.321,9.149 -3.66,0 -7.32,-3.66 -7.32,-7.32 z" /><path
         id="path44"
         style="fill:#a50101;fill-opacity:1;fill-rule:nonzero;stroke:none"
         d="m 115.25,192.25 c 0,2.5 -2.5,5 -5,5 -2.5,0 -5,-2.5 -5,-6.25 0,-6.25 10,-16.25 10,-18.75 0,2.5 10,12.5 10,18.75 0,3.75 -2.5,6.25 -5,6.25 -2.5,0 -5,-2.5 -5,-5 z" /><path
         id="path46"
         style="fill:#a50101;fill-opacity:1;fill-rule:nonzero;stroke:none"
         d="m 64.75,192.25 c 0,2.5 -2.5,5 -5,5 -2.5,0 -5,-2.5 -5,-6.25 0,-6.25 10,-16.25 10,-18.75 0,2.5 10,12.5 10,18.75 0,3.75 -2.5,6.25 -5,6.25 -2.5,0 -5,-2.5 -5,-5 z" /><path
         id="path48"
         style="fill:#a50101;fill-opacity:1;fill-rule:nonzero;stroke:none"
         d="m 90,162.875 c 0,2.5 -2.5,5 -5,5 -2.5,0 -5,-2.5 -5,-6.25 0,-6.25 10,-16.25 10,-18.75 0,2.5 10,12.5 10,18.75 0,3.75 -2.5,6.25 -5,6.25 -2.5,0 -5,-2.5 -5,-5 z" /></g></g></svg>
