<?xml version="1.0" encoding="UTF-8" standalone="no"?>
<svg
   xmlns:dc="http://purl.org/dc/elements/1.1/"
   xmlns:cc="http://creativecommons.org/ns#"
   xmlns:rdf="http://www.w3.org/1999/02/22-rdf-syntax-ns#"
   xmlns:svg="http://www.w3.org/2000/svg"
   xmlns="http://www.w3.org/2000/svg"
   xmlns:sodipodi="http://sodipodi.sourceforge.net/DTD/sodipodi-0.dtd"
   xmlns:inkscape="http://www.inkscape.org/namespaces/inkscape"
   sodipodi:docname="AC.pdf"
   viewBox="0 0 240 336"
   height="336"
   width="240"
   xml:space="preserve"
   id="svg2"
   version="1.1"><metadata
     id="metadata8"><rdf:RDF><cc:Work
         rdf:about=""><dc:format>image/svg+xml</dc:format><dc:type
           rdf:resource="http://purl.org/dc/dcmitype/StillImage" /></cc:Work></rdf:RDF></metadata><defs
     id="defs6" /><sodipodi:namedview
     id="namedview4"
     inkscape:window-height="480"
     inkscape:window-width="640"
     inkscape:pageshadow="2"
     inkscape:pageopacity="0"
     guidetolerance="10"
     gridtolerance="10"
     objecttolerance="10"
     borderopacity="1"
     bordercolor="#666666"
     pagecolor="#ffffff" /><g
     transform="matrix(1.3333333,0,0,1.3333333,0,8.4e-6)"
     inkscape:label="AC"
     inkscape:groupmode="layer"
     id="g10"><g
       id="g12"><g
         id="g14"><path
           id="path16"
           style="fill:#ffffff;fill-opacity:1;fill-rule:nonzero;stroke:#000000;stroke-width:0.75;stroke-linecap:butt;stroke-linejoin:miter;stroke-miterlimit:4;stroke-dasharray:none;stroke-opacity:1"
           d="m 9.375,0.375 h 161.25 c 4.984,0 9,4.016 9,9 v 233.25 c 0,4.984 -4.016,9 -9,9 H 9.375 c -4.984,0 -9,-4.016 -9,-9 V 9.375 c 0,-4.984 4.016,-9 9,-9 z" /></g><g
         id="g18"><path
           id="path20"
           style="fill:#ffffcc;fill-opacity:1;fill-rule:nonzero;stroke:#8888ff;stroke-width:0.75;stroke-linecap:butt;stroke-linejoin:miter;stroke-miterlimit:4;stroke-dasharray:none;stroke-opacity:1"
           d="m 51,51 h 78 V 201 H 51 Z" /></g><path
         id="path22"
         style="fill:#008000;fill-opacity:1;fill-rule:nonzero;stroke:none"
         d="m 90.75,129.75 c 0.125,5.875 1.375,6.25 2.5,8.75 h -6.5 c 1.125,-2.5 2.375,-2.875 2.5,-8.75 0,-0.332 -0.5,-0.332 -0.5,0 -0.969,5.25 -8.246,5.871 -10.09,0.863 -1.844,-5.011 4.098,-9.258 8.238,-5.886 0.235,0.171 0.524,-0.122 0.352,-0.352 -2.309,-1.258 -3.473,-3.922 -2.82,-6.469 0.648,-2.547 2.941,-4.332 5.57,-4.332 2.629,0 4.922,1.785 5.57,4.332 0.653,2.547 -0.511,5.211 -2.82,6.469 -0.172,0.23 0.117,0.523 0.352,0.352 4.14,-3.372 10.082,0.875 8.238,5.886 -1.844,5.008 -9.121,4.387 -10.09,-0.863 0,-0.332 -0.5,-0.332 -0.5,0 z" /><g
         id="g24"><path
           id="path26"
           style="fill:none;stroke:#008000;stroke-width:4.2;stroke-linecap:square;stroke-linejoin:miter;stroke-miterlimit:1.5;stroke-dasharray:none;stroke-opacity:1"
           d="m 10.574,59.398 h 8.403 m -4.727,-0.523 10.5,-47.773 10.5,47.773 m -4.727,0.523 h 8.403 M 18.449,42.074 h 12.602" /></g><path
         id="path28"
         style="fill:#008000;fill-opacity:1;fill-rule:nonzero;stroke:none"
         d="m 25.848,92.699 c 0.183,8.602 2.011,9.149 3.66,12.809 h -9.516 c 1.649,-3.66 3.477,-4.207 3.66,-12.809 0,-0.488 -0.73,-0.488 -0.73,0 -0.629,3.406 -3.457,5.969 -6.906,6.262 -3.45,0.297 -6.672,-1.75 -7.868,-5 -1.195,-3.25 -0.07,-6.899 2.747,-8.91 2.816,-2.012 6.632,-1.895 9.316,0.293 0.34,0.254 0.766,-0.176 0.512,-0.512 -3.379,-1.844 -5.078,-5.742 -4.129,-9.473 0.949,-3.73 4.308,-6.339 8.156,-6.339 3.848,0 7.207,2.609 8.156,6.339 0.949,3.731 -0.75,7.629 -4.129,9.473 -0.254,0.336 0.172,0.766 0.512,0.512 2.684,-2.188 6.5,-2.305 9.316,-0.293 2.817,2.011 3.942,5.66 2.747,8.91 -1.196,3.25 -4.418,5.297 -7.868,5 -3.449,-0.293 -6.277,-2.856 -6.906,-6.262 0,-0.488 -0.73,-0.488 -0.73,0 z" /><g
         transform="scale(-1)"
         id="g30"><path
           id="path32"
           style="fill:none;stroke:#008000;stroke-width:4.2;stroke-linecap:square;stroke-linejoin:miter;stroke-miterlimit:1.5;stroke-dasharray:none;stroke-opacity:1"
           d="m -169.426,-192.602 h 8.403 m -4.727,-0.523 10.5,-47.773 10.5,47.773 m -4.727,0.523 h 8.403 m -20.477,-17.324 h 12.602" /></g><path
         id="path34"
         style="fill:#008000;fill-opacity:1;fill-rule:nonzero;stroke:none"
         d="m 154.152,159.301 c -0.183,-8.602 -2.011,-9.149 -3.66,-12.809 h 9.516 c -1.649,3.66 -3.477,4.207 -3.66,12.809 0,0.488 0.73,0.488 0.73,0 0.629,-3.406 3.457,-5.969 6.906,-6.262 3.45,-0.297 6.672,1.75 7.868,5 1.195,3.25 0.07,6.899 -2.747,8.91 -2.816,2.012 -6.632,1.895 -9.316,-0.293 -0.34,-0.254 -0.766,0.176 -0.512,0.512 3.379,1.844 5.078,5.742 4.129,9.473 -0.949,3.73 -4.308,6.339 -8.156,6.339 -3.848,0 -7.207,-2.609 -8.156,-6.339 -0.949,-3.731 0.75,-7.629 4.129,-9.473 0.254,-0.336 -0.172,-0.766 -0.512,-0.512 -2.684,2.188 -6.5,2.305 -9.316,0.293 -2.817,-2.011 -3.942,-5.66 -2.747,-8.91 1.196,-3.25 4.418,-5.297 7.868,-5 3.449,0.293 6.277,2.856 6.906,6.262 0,0.488 0.73,0.488 0.73,0 z" /></g></g></svg>
