<?xml version="1.0" encoding="UTF-8" standalone="no"?>
<svg
   xmlns:dc="http://purl.org/dc/elements/1.1/"
   xmlns:cc="http://creativecommons.org/ns#"
   xmlns:rdf="http://www.w3.org/1999/02/22-rdf-syntax-ns#"
   xmlns:svg="http://www.w3.org/2000/svg"
   xmlns="http://www.w3.org/2000/svg"
   xmlns:sodipodi="http://sodipodi.sourceforge.net/DTD/sodipodi-0.dtd"
   xmlns:inkscape="http://www.inkscape.org/namespaces/inkscape"
   sodipodi:docname="AD.pdf"
   viewBox="0 0 240 336"
   height="336"
   width="240"
   xml:space="preserve"
   id="svg2"
   version="1.1"><metadata
     id="metadata8"><rdf:RDF><cc:Work
         rdf:about=""><dc:format>image/svg+xml</dc:format><dc:type
           rdf:resource="http://purl.org/dc/dcmitype/StillImage" /></cc:Work></rdf:RDF></metadata><defs
     id="defs6" /><sodipodi:namedview
     id="namedview4"
     inkscape:window-height="480"
     inkscape:window-width="640"
     inkscape:pageshadow="2"
     inkscape:pageopacity="0"
     guidetolerance="10"
     gridtolerance="10"
     objecttolerance="10"
     borderopacity="1"
     bordercolor="#666666"
     pagecolor="#ffffff" /><g
     transform="matrix(1.3333333,0,0,1.3333333,0,8.4e-6)"
     inkscape:label="AD"
     inkscape:groupmode="layer"
     id="g10"><g
       id="g12"><g
         id="g14"><path
           id="path16"
           style="fill:#ffffff;fill-opacity:1;fill-rule:nonzero;stroke:#000000;stroke-width:0.75;stroke-linecap:butt;stroke-linejoin:miter;stroke-miterlimit:4;stroke-dasharray:none;stroke-opacity:1"
           d="m 9.375,0.375 h 161.25 c 4.984,0 9,4.016 9,9 v 233.25 c 0,4.984 -4.016,9 -9,9 H 9.375 c -4.984,0 -9,-4.016 -9,-9 V 9.375 c 0,-4.984 4.016,-9 9,-9 z" /></g><g
         id="g18"><path
           id="path20"
           style="fill:#ffffcc;fill-opacity:1;fill-rule:nonzero;stroke:#8888ff;stroke-width:0.75;stroke-linecap:butt;stroke-linejoin:miter;stroke-miterlimit:4;stroke-dasharray:none;stroke-opacity:1"
           d="m 51,51 h 78 V 201 H 51 Z" /></g><path
         id="path22"
         style="fill:#0000ff;fill-opacity:1;fill-rule:nonzero;stroke:none"
         d="m 80,126 c 1.25,0 10,-11.25 10,-12.5 0,1.25 8.75,12.5 10,12.5 -1.25,0 -10,11.25 -10,12.5 C 90,137.25 81.25,126 80,126 Z" /><g
         id="g24"><path
           id="path26"
           style="fill:none;stroke:#0000ff;stroke-width:4.2;stroke-linecap:square;stroke-linejoin:miter;stroke-miterlimit:1.5;stroke-dasharray:none;stroke-opacity:1"
           d="m 10.574,59.398 h 8.403 m -4.727,-0.523 10.5,-47.773 10.5,47.773 m -4.727,0.523 h 8.403 M 18.449,42.074 h 12.602" /></g><path
         id="path28"
         style="fill:#0000ff;fill-opacity:1;fill-rule:nonzero;stroke:none"
         d="m 10.109,87.211 c 1.832,0 14.641,-16.473 14.641,-18.301 0,1.828 12.809,18.301 14.641,18.301 -1.832,0 -14.641,16.469 -14.641,18.297 0,-1.828 -12.809,-18.297 -14.641,-18.297 z" /><g
         transform="scale(-1)"
         id="g30"><path
           id="path32"
           style="fill:none;stroke:#0000ff;stroke-width:4.2;stroke-linecap:square;stroke-linejoin:miter;stroke-miterlimit:1.5;stroke-dasharray:none;stroke-opacity:1"
           d="m -169.426,-192.602 h 8.403 m -4.727,-0.523 10.5,-47.773 10.5,47.773 m -4.727,0.523 h 8.403 m -20.477,-17.324 h 12.602" /></g><path
         id="path34"
         style="fill:#0000ff;fill-opacity:1;fill-rule:nonzero;stroke:none"
         d="m 169.891,164.789 c -1.832,0 -14.641,16.473 -14.641,18.301 0,-1.828 -12.809,-18.301 -14.641,-18.301 1.832,0 14.641,-16.469 14.641,-18.297 0,1.828 12.809,18.297 14.641,18.297 z" /></g></g></svg>
