<?xml version="1.0" encoding="UTF-8" standalone="no"?>
<svg
   xmlns:dc="http://purl.org/dc/elements/1.1/"
   xmlns:cc="http://creativecommons.org/ns#"
   xmlns:rdf="http://www.w3.org/1999/02/22-rdf-syntax-ns#"
   xmlns:svg="http://www.w3.org/2000/svg"
   xmlns="http://www.w3.org/2000/svg"
   xmlns:sodipodi="http://sodipodi.sourceforge.net/DTD/sodipodi-0.dtd"
   xmlns:inkscape="http://www.inkscape.org/namespaces/inkscape"
   sodipodi:docname="AS.pdf"
   viewBox="0 0 240 336"
   height="336"
   width="240"
   xml:space="preserve"
   id="svg2"
   version="1.1"><metadata
     id="metadata8"><rdf:RDF><cc:Work
         rdf:about=""><dc:format>image/svg+xml</dc:format><dc:type
           rdf:resource="http://purl.org/dc/dcmitype/StillImage" /></cc:Work></rdf:RDF></metadata><defs
     id="defs6" /><sodipodi:namedview
     id="namedview4"
     inkscape:window-height="480"
     inkscape:window-width="640"
     inkscape:pageshadow="2"
     inkscape:pageopacity="0"
     guidetolerance="10"
     gridtolerance="10"
     objecttolerance="10"
     borderopacity="1"
     bordercolor="#666666"
     pagecolor="#ffffff" /><g
     transform="matrix(1.3333333,0,0,1.3333333,0,8.4e-6)"
     inkscape:label="AS"
     inkscape:groupmode="layer"
     id="g10"><g
       id="g12"><g
         id="g14"><path
           id="path16"
           style="fill:#ffffff;fill-opacity:1;fill-rule:nonzero;stroke:#000000;stroke-width:0.75;stroke-linecap:butt;stroke-linejoin:miter;stroke-miterlimit:4;stroke-dasharray:none;stroke-opacity:1"
           d="m 9.375,0.375 h 161.25 c 4.984,0 9,4.016 9,9 v 233.25 c 0,4.984 -4.016,9 -9,9 H 9.375 c -4.984,0 -9,-4.016 -9,-9 V 9.375 c 0,-4.984 4.016,-9 9,-9 z" /></g><g
         id="g18"><path
           id="path20"
           style="fill:#ffffcc;fill-opacity:1;fill-rule:nonzero;stroke:#8888ff;stroke-width:0.75;stroke-linecap:butt;stroke-linejoin:miter;stroke-miterlimit:4;stroke-dasharray:none;stroke-opacity:1"
           d="m 51,51 h 78 V 201 H 51 Z" /></g><g
         id="g22"><path
           id="path24"
           style="fill:#000000;fill-opacity:1;fill-rule:nonzero;stroke:#000000;stroke-width:6.5;stroke-linecap:round;stroke-linejoin:miter;stroke-miterlimit:4;stroke-dasharray:6.5, 6.5;stroke-dashoffset:0;stroke-opacity:1"
           d="m 90,93.5 c 6.5,16.25 23.074,26 23.074,44.523 0,5.387 -4.363,9.75 -9.75,9.75 -5.383,0 -9.75,-4.363 -9.75,-9.75 0,-0.863 -1.301,-0.863 -1.301,0 0,13 3.25,13.977 6.176,20.477 H 81.551 c 2.926,-6.5 6.176,-7.477 6.176,-20.477 0,-0.863 -1.301,-0.863 -1.301,0 0,5.387 -4.367,9.75 -9.75,9.75 -5.387,0 -9.75,-4.363 -9.75,-9.75 C 66.926,119.5 83.5,109.75 90,93.5 Z" /></g><g
         id="g26"><path
           id="path28"
           style="fill:#000000;fill-opacity:1;fill-rule:nonzero;stroke:#ffffff;stroke-width:3.25;stroke-linecap:butt;stroke-linejoin:miter;stroke-miterlimit:4;stroke-dasharray:none;stroke-opacity:1"
           d="m 90,93.5 c 6.5,16.25 23.074,26 23.074,44.523 0,5.387 -4.363,9.75 -9.75,9.75 -5.383,0 -9.75,-4.363 -9.75,-9.75 0,-0.863 -1.301,-0.863 -1.301,0 0,13 3.25,13.977 6.176,20.477 H 81.551 c 2.926,-6.5 6.176,-7.477 6.176,-20.477 0,-0.863 -1.301,-0.863 -1.301,0 0,5.387 -4.367,9.75 -9.75,9.75 -5.387,0 -9.75,-4.363 -9.75,-9.75 C 66.926,119.5 83.5,109.75 90,93.5 Z" /></g><path
         id="path30"
         style="fill:#000000;fill-opacity:1;fill-rule:nonzero;stroke:none"
         d="m 90,93.5 c 6.5,16.25 23.074,26 23.074,44.523 0,5.387 -4.363,9.75 -9.75,9.75 -5.383,0 -9.75,-4.363 -9.75,-9.75 0,-0.863 -1.301,-0.863 -1.301,0 0,13 3.25,13.977 6.176,20.477 H 81.551 c 2.926,-6.5 6.176,-7.477 6.176,-20.477 0,-0.863 -1.301,-0.863 -1.301,0 0,5.387 -4.367,9.75 -9.75,9.75 -5.387,0 -9.75,-4.363 -9.75,-9.75 C 66.926,119.5 83.5,109.75 90,93.5 Z" /><path
         id="path32"
         style="fill:#ffffff;fill-opacity:1;fill-rule:nonzero;stroke:none"
         d="M 90,107.098 93.992,111.09 90,115.078 86.008,111.09 M 90,108.238 87.148,111.09 90,113.938 92.852,111.09 m 1.71,0.57 2.848,2.848 -1.711,1.711 -0.566,-0.571 -1.141,1.141 0.57,0.57 -1.14,1.141 -0.57,-0.57 1.14,-1.141 -0.57,-0.57 -1.141,1.14 -0.57,-0.57 1.141,-1.141 -0.571,-0.57 -1.14,1.141 -0.571,-0.571 1.141,-1.14 0.57,0.57 0.571,-0.57 -0.571,-0.57 m 2.281,-1.137 -0.57,0.566 1.141,1.141 -0.571,0.57 0.571,0.57 1.137,-1.14 m 1.71,0.57 3.993,3.992 -3.993,3.992 -3.988,-3.992 m 3.988,-2.851 -2.847,2.851 2.847,2.852 2.852,-2.852 M 90,109.379 91.711,111.09 90,112.801 88.289,111.09 m 9.691,6.269 1.711,1.711 -1.711,1.711 -1.71,-1.711 m -10.832,-7.41 1.14,1.141 -0.57,0.566 1.14,1.141 0.571,-0.57 1.711,1.71 -0.571,0.571 -0.57,-0.571 -0.57,0.571 1.711,1.711 0.57,-0.571 1.141,1.141 0.57,-0.57 0.57,0.57 -0.57,0.57 1.141,1.141 -1.711,1.711 0.57,0.57 2.281,-2.281 0.57,0.57 -0.57,0.571 0.57,0.57 0.571,-0.57 2.277,2.281 -0.57,0.566 -0.57,-0.566 -0.571,0.566 0.571,0.571 -0.571,0.57 -0.566,-0.57 -0.571,0.57 0.571,0.57 -0.571,0.57 -1.14,-1.14 -0.57,0.57 -1.141,-1.14 0.57,-0.571 1.141,1.141 1.14,-1.141 -1.14,-1.137 -0.57,0.571 -1.141,-1.141 -0.57,0.57 -1.711,-1.71 -0.571,0.57 1.711,1.711 -1.14,1.137 0.57,0.57 0.57,-0.57 0.571,0.57 -0.571,0.57 -0.57,-0.57 -1.141,1.14 -0.57,-0.57 -1.141,1.141 0.571,0.57 0.57,-0.57 0.57,0.57 1.141,-1.141 0.57,0.571 0.571,-0.571 0.57,0.571 0.57,-0.571 0.571,0.571 0.57,-0.571 0.57,0.571 -1.14,1.14 -0.571,-0.57 -0.57,0.57 0.57,0.571 -0.57,0.57 -1.141,-1.141 -0.57,0.571 -0.57,-0.571 -1.141,1.141 -3.422,-3.422 0.571,-0.57 -0.571,-0.57 -0.566,0.57 -0.571,-0.57 0.571,-0.571 -0.571,-0.566 -0.57,0.566 -0.57,-0.566 1.14,-1.141 0.571,0.57 1.137,-1.14 -0.571,-0.57 1.141,-1.141 0.57,0.57 0.57,-0.57 -0.57,-0.57 0.57,-0.571 -1.14,-1.14 0.57,-0.571 0.57,0.571 0.571,-0.571 -1.711,-1.711 -0.57,0.571 0.57,0.57 -0.57,0.57 -0.571,-0.57 0.571,-0.57 -1.708,-1.711 -0.57,0.57 -0.57,-0.57 1.711,-1.707 1.137,1.137 0.57,-0.571 -1.141,-1.137 m 2.281,2.278 -0.57,0.57 0.57,0.57 0.571,-0.57 m 3.422,3.422 -1.141,1.141 0.57,0.57 -0.57,0.57 0.57,0.571 1.141,-1.141 -0.57,-0.57 0.57,-0.571 m 2.851,2.852 -0.57,0.57 1.141,1.141 0.566,-0.571 m -10.261,-9.124 -0.571,0.57 1.141,1.14 0.57,-0.57 m 2.852,2.852 -0.571,0.57 -0.57,-0.57 -1.141,1.14 0.571,0.571 0.57,-0.571 1.141,1.141 0.57,-0.57 -0.57,-0.571 0.57,-0.57 m 3.422,3.422 -0.57,0.57 0.57,0.57 0.57,-0.57 m 1.141,1.141 -0.571,0.566 0.571,0.571 0.566,-0.571 m -7.41,-2.847 -0.57,0.57 0.57,0.57 0.57,-0.57 m -6.839,-6.844 3.988,3.992 -3.988,3.992 -3.993,-3.992 m 3.993,-2.851 -2.852,2.851 2.852,2.852 2.847,-2.852 m 1.711,1.711 -1.14,1.141 0.57,0.57 -0.57,0.57 0.57,0.571 0.57,-0.571 0.57,0.571 -1.71,1.707 0.57,0.57 1.711,-1.711 1.14,1.141 0.571,-0.57 -0.571,-0.571 0.571,-0.566 -0.571,-0.571 -0.57,0.571 -1.141,-1.141 0.571,-0.57 m -5.699,-4.563 1.71,1.711 -1.71,1.711 -1.711,-1.711 m 4.558,4.563 -0.566,0.566 0.566,0.571 0.571,-0.571 m 5.132,5.133 0.571,0.57 -1.141,1.141 -1.141,-1.141 0.571,-0.57 0.57,0.57" /><text
         id="text38"
         style="font-variant:normal;font-weight:normal;font-size:11.25px;font-family:'DejaVu Sans';-inkscape-font-specification:DejaVuSans;writing-mode:lr-tb;fill:#000000;fill-opacity:1;fill-rule:nonzero;stroke:none"
         transform="translate(57.376099,184.125)"><tspan
           id="tspan34"
           sodipodi:role="line"
           y="0"
           x="0 9.1912498 18.3825 26.53875 30.105 41.0625 47.981251 51.547501 58.668751">www.me.uk</tspan><tspan
           id="tspan36"
           sodipodi:role="line"
           y="11.25"
           x="13.579099 17.359098 23.535349 30.420349 34.841599 41.974098 47.8241">/cards/</tspan></text><g
         id="g40"><path
           id="path42"
           style="fill:none;stroke:#000000;stroke-width:4.2;stroke-linecap:square;stroke-linejoin:miter;stroke-miterlimit:1.5;stroke-dasharray:none;stroke-opacity:1"
           d="m 10.574,59.398 h 8.403 m -4.727,-0.523 10.5,-47.773 10.5,47.773 m -4.727,0.523 h 8.403 M 18.449,42.074 h 12.602" /></g><path
         id="path44"
         style="fill:#000000;fill-opacity:1;fill-rule:nonzero;stroke:none"
         d="m 24.75,68.91 c 3.66,9.149 12.992,14.641 12.992,25.07 0,3.032 -2.457,5.489 -5.488,5.489 -3.031,0 -5.492,-2.457 -5.492,-5.489 0,-0.488 -0.731,-0.488 -0.731,0 0,7.321 1.828,7.868 3.477,11.528 h -9.516 c 1.649,-3.66 3.477,-4.207 3.477,-11.528 0,-0.488 -0.731,-0.488 -0.731,0 0,3.032 -2.461,5.489 -5.492,5.489 -3.031,0 -5.488,-2.457 -5.488,-5.489 0,-10.429 9.332,-15.921 12.992,-25.07 z" /><g
         transform="scale(-1)"
         id="g46"><path
           id="path48"
           style="fill:none;stroke:#000000;stroke-width:4.2;stroke-linecap:square;stroke-linejoin:miter;stroke-miterlimit:1.5;stroke-dasharray:none;stroke-opacity:1"
           d="m -169.426,-192.602 h 8.403 m -4.727,-0.523 10.5,-47.773 10.5,47.773 m -4.727,0.523 h 8.403 m -20.477,-17.324 h 12.602" /></g><path
         id="path50"
         style="fill:#000000;fill-opacity:1;fill-rule:nonzero;stroke:none"
         d="m 155.25,183.09 c -3.66,-9.149 -12.992,-14.641 -12.992,-25.07 0,-3.032 2.457,-5.489 5.488,-5.489 3.031,0 5.492,2.457 5.492,5.489 0,0.488 0.731,0.488 0.731,0 0,-7.321 -1.828,-7.868 -3.477,-11.528 h 9.516 c -1.649,3.66 -3.477,4.207 -3.477,11.528 0,0.488 0.731,0.488 0.731,0 0,-3.032 2.461,-5.489 5.492,-5.489 3.031,0 5.488,2.457 5.488,5.489 0,10.429 -9.332,15.921 -12.992,25.07 z" /></g></g></svg>
