<?xml version="1.0" encoding="UTF-8" standalone="no"?>
<svg
   xmlns:dc="http://purl.org/dc/elements/1.1/"
   xmlns:cc="http://creativecommons.org/ns#"
   xmlns:rdf="http://www.w3.org/1999/02/22-rdf-syntax-ns#"
   xmlns:svg="http://www.w3.org/2000/svg"
   xmlns="http://www.w3.org/2000/svg"
   xmlns:sodipodi="http://sodipodi.sourceforge.net/DTD/sodipodi-0.dtd"
   xmlns:inkscape="http://www.inkscape.org/namespaces/inkscape"
   sodipodi:docname="JS.pdf"
   viewBox="0 0 240 336"
   height="336"
   width="240"
   xml:space="preserve"
   id="svg2"
   version="1.1"><metadata
     id="metadata8"><rdf:RDF><cc:Work
         rdf:about=""><dc:format>image/svg+xml</dc:format><dc:type
           rdf:resource="http://purl.org/dc/dcmitype/StillImage" /></cc:Work></rdf:RDF></metadata><defs
     id="defs6" /><sodipodi:namedview
     id="namedview4"
     inkscape:window-height="480"
     inkscape:window-width="640"
     inkscape:pageshadow="2"
     inkscape:pageopacity="0"
     guidetolerance="10"
     gridtolerance="10"
     objecttolerance="10"
     borderopacity="1"
     bordercolor="#666666"
     pagecolor="#ffffff" /><g
     transform="matrix(1.3333333,0,0,1.3333333,0,8.4e-6)"
     inkscape:label="JS"
     inkscape:groupmode="layer"
     id="g10"><g
       id="g12"><g
         id="g14"><path
           id="path16"
           style="fill:#ffffff;fill-opacity:1;fill-rule:nonzero;stroke:#000000;stroke-width:0.75;stroke-linecap:butt;stroke-linejoin:miter;stroke-miterlimit:4;stroke-dasharray:none;stroke-opacity:1"
           d="m 9.375,0.375 h 161.25 c 4.984,0 9,4.016 9,9 v 233.25 c 0,4.984 -4.016,9 -9,9 H 9.375 c -4.984,0 -9,-4.016 -9,-9 V 9.375 c 0,-4.984 4.016,-9 9,-9 z" /></g><g
         id="g18"><path
           id="path20"
           style="fill:#ffffcc;fill-opacity:1;fill-rule:nonzero;stroke:#8888ff;stroke-width:0.75;stroke-linecap:butt;stroke-linejoin:miter;stroke-miterlimit:4;stroke-dasharray:none;stroke-opacity:1"
           d="m 48,51 h 84 V 201 H 48 Z" /></g><g
         id="g22"><path
           id="path24"
           style="fill:none;stroke:#000000;stroke-width:6.72;stroke-linecap:square;stroke-linejoin:miter;stroke-miterlimit:1.5;stroke-dasharray:none;stroke-opacity:1"
           d="M 94.199,87.359 H 111 m -8.398,0 V 147 c 0,9.277 -7.524,16.801 -16.801,16.801 C 76.523,163.801 69,156.277 69,147 v -2.52" /></g><g
         id="g26"><path
           id="path28"
           style="fill:none;stroke:#000000;stroke-width:4.2;stroke-linecap:square;stroke-linejoin:miter;stroke-miterlimit:1.5;stroke-dasharray:none;stroke-opacity:1"
           d="m 27.375,11.102 h 10.5 m -5.25,0 v 37.273 c 0,5.801 -4.699,10.5 -10.5,10.5 -5.801,0 -10.5,-4.699 -10.5,-10.5 v -1.574" /></g><path
         id="path30"
         style="fill:#000000;fill-opacity:1;fill-rule:nonzero;stroke:none"
         d="m 24.75,68.91 c 3.66,9.149 12.992,14.641 12.992,25.07 0,3.032 -2.457,5.489 -5.488,5.489 -3.031,0 -5.492,-2.457 -5.492,-5.489 0,-0.488 -0.731,-0.488 -0.731,0 0,7.321 1.828,7.868 3.477,11.528 h -9.516 c 1.649,-3.66 3.477,-4.207 3.477,-11.528 0,-0.488 -0.731,-0.488 -0.731,0 0,3.032 -2.461,5.489 -5.492,5.489 -3.031,0 -5.488,-2.457 -5.488,-5.489 0,-10.429 9.332,-15.921 12.992,-25.07 z" /><g
         transform="scale(-1)"
         id="g32"><path
           id="path34"
           style="fill:none;stroke:#000000;stroke-width:4.2;stroke-linecap:square;stroke-linejoin:miter;stroke-miterlimit:1.5;stroke-dasharray:none;stroke-opacity:1"
           d="m -152.625,-240.898 h 10.5 m -5.25,0 v 37.273 c 0,5.801 -4.699,10.5 -10.5,10.5 -5.801,0 -10.5,-4.699 -10.5,-10.5 v -1.574" /></g><path
         id="path36"
         style="fill:#000000;fill-opacity:1;fill-rule:nonzero;stroke:none"
         d="m 155.25,183.09 c -3.66,-9.149 -12.992,-14.641 -12.992,-25.07 0,-3.032 2.457,-5.489 5.488,-5.489 3.031,0 5.492,2.457 5.492,5.489 0,0.488 0.731,0.488 0.731,0 0,-7.321 -1.828,-7.868 -3.477,-11.528 h 9.516 c -1.649,3.66 -3.477,4.207 -3.477,11.528 0,0.488 0.731,0.488 0.731,0 0,-3.032 2.461,-5.489 5.492,-5.489 3.031,0 5.488,2.457 5.488,5.489 0,10.429 -9.332,15.921 -12.992,25.07 z" /></g></g></svg>
