<?xml version="1.0" encoding="UTF-8" standalone="no"?>
<svg
   xmlns:dc="http://purl.org/dc/elements/1.1/"
   xmlns:cc="http://creativecommons.org/ns#"
   xmlns:rdf="http://www.w3.org/1999/02/22-rdf-syntax-ns#"
   xmlns:svg="http://www.w3.org/2000/svg"
   xmlns="http://www.w3.org/2000/svg"
   xmlns:sodipodi="http://sodipodi.sourceforge.net/DTD/sodipodi-0.dtd"
   xmlns:inkscape="http://www.inkscape.org/namespaces/inkscape"
   sodipodi:docname="QH.pdf"
   viewBox="0 0 240 336"
   height="336"
   width="240"
   xml:space="preserve"
   id="svg2"
   version="1.1"><metadata
     id="metadata8"><rdf:RDF><cc:Work
         rdf:about=""><dc:format>image/svg+xml</dc:format><dc:type
           rdf:resource="http://purl.org/dc/dcmitype/StillImage" /></cc:Work></rdf:RDF></metadata><defs
     id="defs6" /><sodipodi:namedview
     id="namedview4"
     inkscape:window-height="480"
     inkscape:window-width="640"
     inkscape:pageshadow="2"
     inkscape:pageopacity="0"
     guidetolerance="10"
     gridtolerance="10"
     objecttolerance="10"
     borderopacity="1"
     bordercolor="#666666"
     pagecolor="#ffffff" /><g
     transform="matrix(1.3333333,0,0,1.3333333,0,8.4e-6)"
     inkscape:label="QH"
     inkscape:groupmode="layer"
     id="g10"><g
       id="g12"><g
         id="g14"><path
           id="path16"
           style="fill:#ffffff;fill-opacity:1;fill-rule:nonzero;stroke:#000000;stroke-width:0.75;stroke-linecap:butt;stroke-linejoin:miter;stroke-miterlimit:4;stroke-dasharray:none;stroke-opacity:1"
           d="m 9.375,0.375 h 161.25 c 4.984,0 9,4.016 9,9 v 233.25 c 0,4.984 -4.016,9 -9,9 H 9.375 c -4.984,0 -9,-4.016 -9,-9 V 9.375 c 0,-4.984 4.016,-9 9,-9 z" /></g><g
         id="g18"><path
           id="path20"
           style="fill:#ffffcc;fill-opacity:1;fill-rule:nonzero;stroke:#8888ff;stroke-width:0.75;stroke-linecap:butt;stroke-linejoin:miter;stroke-miterlimit:4;stroke-dasharray:none;stroke-opacity:1"
           d="m 48,51 h 84 V 201 H 48 Z" /></g><g
         id="g22"><path
           id="path24"
           style="fill:none;stroke:#a50101;stroke-width:6.72;stroke-linecap:square;stroke-linejoin:miter;stroke-miterlimit:1.5;stroke-dasharray:none;stroke-opacity:1"
           d="m 68.16,134.398 c 25.199,0 18.481,30.243 43.68,30.243 M 75.301,126 v -23.941 c 0,-8.118 6.582,-14.7 14.699,-14.7 8.117,0 14.699,6.582 14.699,14.7 v 47.882 c 0,8.118 -6.582,14.7 -14.699,14.7 -8.117,0 -14.699,-6.582 -14.699,-14.7 z" /></g><g
         id="g26"><path
           id="path28"
           style="fill:none;stroke:#a50101;stroke-width:4.2;stroke-linecap:square;stroke-linejoin:miter;stroke-miterlimit:1.5;stroke-dasharray:none;stroke-opacity:1"
           d="m 11.102,40.5 c 15.75,0 11.546,18.898 27.296,18.898 M 15.562,35.25 V 20.289 c 0,-5.074 4.114,-9.187 9.188,-9.187 5.074,0 9.188,4.113 9.188,9.187 v 29.922 c 0,5.074 -4.114,9.187 -9.188,9.187 -5.074,0 -9.188,-4.113 -9.188,-9.187 z" /></g><path
         id="path30"
         style="fill:#a50101;fill-opacity:1;fill-rule:nonzero;stroke:none"
         d="m 24.75,76.23 c 0,-3.66 3.66,-7.32 7.32,-7.32 3.66,0 7.321,3.66 7.321,9.149 0,9.152 -14.641,23.789 -14.641,27.449 0,-3.66 -14.641,-18.297 -14.641,-27.449 0,-5.489 3.661,-9.149 7.321,-9.149 3.66,0 7.32,3.66 7.32,7.32 z" /><g
         transform="scale(-1)"
         id="g32"><path
           id="path34"
           style="fill:none;stroke:#a50101;stroke-width:4.2;stroke-linecap:square;stroke-linejoin:miter;stroke-miterlimit:1.5;stroke-dasharray:none;stroke-opacity:1"
           d="m -168.898,-211.5 c 15.75,0 11.546,18.898 27.296,18.898 m -22.836,-24.148 v -14.961 c 0,-5.074 4.114,-9.187 9.188,-9.187 5.074,0 9.188,4.113 9.188,9.187 v 29.922 c 0,5.074 -4.114,9.187 -9.188,9.187 -5.074,0 -9.188,-4.113 -9.188,-9.187 z" /></g><path
         id="path36"
         style="fill:#a50101;fill-opacity:1;fill-rule:nonzero;stroke:none"
         d="m 155.25,175.77 c 0,3.66 -3.66,7.32 -7.32,7.32 -3.66,0 -7.321,-3.66 -7.321,-9.149 0,-9.152 14.641,-23.789 14.641,-27.449 0,3.66 14.641,18.297 14.641,27.449 0,5.489 -3.661,9.149 -7.321,9.149 -3.66,0 -7.32,-3.66 -7.32,-7.32 z" /></g></g></svg>
