<?xml version="1.0" encoding="UTF-8" standalone="no"?>
<svg
   xmlns:dc="http://purl.org/dc/elements/1.1/"
   xmlns:cc="http://creativecommons.org/ns#"
   xmlns:rdf="http://www.w3.org/1999/02/22-rdf-syntax-ns#"
   xmlns:svg="http://www.w3.org/2000/svg"
   xmlns="http://www.w3.org/2000/svg"
   xmlns:sodipodi="http://sodipodi.sourceforge.net/DTD/sodipodi-0.dtd"
   xmlns:inkscape="http://www.inkscape.org/namespaces/inkscape"
   inkscape:version="1.0 (4035a4fb49, 2020-05-01)"
   sodipodi:docname="tes.svg"
   id="svg10"
   version="1.1"
   viewBox="-6 8994 3011 4211"
   height="3.5in"
   width="2.5in">
  <metadata
     id="metadata16">
    <rdf:RDF>
      <cc:Work
         rdf:about="">
        <dc:format>image/svg+xml</dc:format>
        <dc:type
           rdf:resource="http://purl.org/dc/dcmitype/StillImage" />
        <dc:title></dc:title>
      </cc:Work>
    </rdf:RDF>
  </metadata>
  <defs
     id="defs14" />
  <sodipodi:namedview
     inkscape:current-layer="svg10"
     inkscape:window-maximized="1"
     inkscape:window-y="-11"
     inkscape:window-x="135"
     inkscape:cy="168"
     inkscape:cx="120"
     inkscape:zoom="3"
     showgrid="false"
     id="namedview12"
     inkscape:window-height="2126"
     inkscape:window-width="3694"
     inkscape:pageshadow="2"
     inkscape:pageopacity="0"
     guidetolerance="10"
     gridtolerance="10"
     objecttolerance="10"
     borderopacity="1"
     bordercolor="#666666"
     pagecolor="#ffffff" />
  <g
     id="g8"
     style="stroke-width:.025in; stroke:black; fill:none">
    <!-- Line -->
    <!--  spline  -->
    <polyline
       id="polyline2"
       style="stroke:#ffffff;stroke-width:0; stroke-linejoin:bevel; stroke-linecap:butt; fill:#ffffff; "
       points="156,9006 157,9006 160,9006 166,9006 175,9006 188,9006 206,9006 228,9006 257,9006 291,9006 332,9006 378,9006 432,9006 492,9006 559,9006 632,9006 711,9006 795,9006 885,9006 980,9006 1079,9006 1181,9006 1286,9006 1392,9006 1499,9006 1607,9006 1713,9006 1818,9006 1920,9006 2019,9006 2114,9006 2204,9006 2288,9006 2367,9006 2440,9006 2507,9006 2567,9006 2621,9006 2667,9006 2708,9006 2742,9006 2771,9006 2793,9006 2811,9006 2824,9006 2833,9006 2839,9006 2842,9006 2843,9006 2844,9006 2852,9007 2867,9010 2882,9012 2890,9013 2891,9013 2892,9013 2895,9015 2902,9018 2910,9022 2920,9027 2932,9035 2942,9043 2948,9048 2950,9049 2951,9051 2956,9057 2964,9067 2972,9078 2976,9084 2977,9086 2978,9089 2981,9095 2986,9108 2990,9122 2992,9134 2993,9143 2993,9151 2993,9155 2993,9156 2993,9157 2993,9159 2993,9164 2993,9171 2993,9181 2993,9195 2993,9213 2993,9236 2993,9263 2993,9296 2993,9334 2993,9379 2993,9429 2993,9485 2993,9547 2993,9616 2993,9691 2993,9771 2993,9858 2993,9951 2993,10048 2993,10151 2993,10259 2993,10371 2993,10486 2993,10605 2993,10726 2993,10850 2993,10974 2993,11099 2993,11225 2993,11349 2993,11473 2993,11594 2993,11713 2993,11828 2993,11940 2993,12048 2993,12151 2993,12248 2993,12341 2993,12428 2993,12508 2993,12583 2993,12652 2993,12714 2993,12770 2993,12820 2993,12865 2993,12903 2993,12936 2993,12963 2993,12986 2993,13004 2993,13018 2993,13028 2993,13035 2993,13040 2993,13042 2993,13043 2993,13044 2992,13052 2989,13067 2987,13082 2986,13090 2986,13091 2986,13092 2984,13095 2981,13102 2977,13110 2972,13120 2964,13132 2956,13142 2951,13148 2950,13150 2948,13151 2942,13156 2932,13164 2921,13172 2915,13176 2913,13177 2910,13178 2904,13181 2891,13186 2877,13190 2865,13192 2856,13193 2848,13193 2844,13193 2843,13193 2842,13193 2839,13193 2833,13193 2824,13193 2811,13193 2793,13193 2771,13193 2742,13193 2708,13193 2667,13193 2621,13193 2567,13193 2507,13193 2440,13193 2367,13193 2288,13193 2204,13193 2114,13193 2019,13193 1920,13193 1818,13193 1713,13193 1607,13193 1500,13193 1392,13193 1286,13193 1181,13193 1079,13193 980,13193 885,13193 795,13193 711,13193 632,13193 559,13193 492,13193 432,13193 378,13193 332,13193 291,13193 257,13193 228,13193 206,13193 188,13193 175,13193 166,13193 160,13193 157,13193 156,13193 155,13193 147,13192 132,13189 117,13187 109,13186 108,13186 107,13186 104,13184 97,13181 89,13177 79,13172 67,13164 57,13156 51,13151 49,13150 48,13148 43,13142 35,13132 27,13121 23,13115 22,13113 21,13110 18,13104 13,13091 9,13077 7,13065 6,13056 6,13048 6,13044 6,13043 6,13042 6,13040 6,13035 6,13028 6,13018 6,13004 6,12986 6,12963 6,12936 6,12903 6,12865 6,12820 6,12770 6,12714 6,12652 6,12583 6,12508 6,12428 6,12341 6,12248 6,12151 6,12048 6,11940 6,11828 6,11713 6,11594 6,11473 6,11349 6,11225 6,11100 6,10974 6,10850 6,10726 6,10605 6,10486 6,10371 6,10259 6,10151 6,10048 6,9951 6,9858 6,9771 6,9691 6,9616 6,9547 6,9485 6,9429 6,9379 6,9334 6,9296 6,9263 6,9236 6,9213 6,9195 6,9181 6,9171 6,9164 6,9159 6,9157 6,9156 6,9155 7,9147 10,9132 12,9117 13,9109 13,9108 13,9107 15,9104 18,9097 22,9089 27,9079 35,9067 43,9057 48,9051 49,9049 51,9048 57,9043 67,9035 78,9027 84,9023 86,9022 89,9021 95,9018 108,9013 122,9009 134,9007 143,9006 151,9006 155,9006 156,9006 " />
    <!-- Line -->
    <!--  spline  -->
    <polyline
       id="polyline4"
       style="stroke:#000000;stroke-width:7; stroke-linejoin:bevel; stroke-linecap:butt; "
       points="156,9006 157,9006 160,9006 166,9006 175,9006 188,9006 206,9006 228,9006 257,9006 291,9006 332,9006 378,9006 432,9006 492,9006 559,9006 632,9006 711,9006 795,9006 885,9006 980,9006 1079,9006 1181,9006 1286,9006 1392,9006 1499,9006 1607,9006 1713,9006 1818,9006 1920,9006 2019,9006 2114,9006 2204,9006 2288,9006 2367,9006 2440,9006 2507,9006 2567,9006 2621,9006 2667,9006 2708,9006 2742,9006 2771,9006 2793,9006 2811,9006 2824,9006 2833,9006 2839,9006 2842,9006 2843,9006 2844,9006 2852,9007 2867,9010 2882,9012 2890,9013 2891,9013 2892,9013 2895,9015 2902,9018 2910,9022 2920,9027 2932,9035 2942,9043 2948,9048 2950,9049 2951,9051 2956,9057 2964,9067 2972,9078 2976,9084 2977,9086 2978,9089 2981,9095 2986,9108 2990,9122 2992,9134 2993,9143 2993,9151 2993,9155 2993,9156 2993,9157 2993,9159 2993,9164 2993,9171 2993,9181 2993,9195 2993,9213 2993,9236 2993,9263 2993,9296 2993,9334 2993,9379 2993,9429 2993,9485 2993,9547 2993,9616 2993,9691 2993,9771 2993,9858 2993,9951 2993,10048 2993,10151 2993,10259 2993,10371 2993,10486 2993,10605 2993,10726 2993,10850 2993,10974 2993,11099 2993,11225 2993,11349 2993,11473 2993,11594 2993,11713 2993,11828 2993,11940 2993,12048 2993,12151 2993,12248 2993,12341 2993,12428 2993,12508 2993,12583 2993,12652 2993,12714 2993,12770 2993,12820 2993,12865 2993,12903 2993,12936 2993,12963 2993,12986 2993,13004 2993,13018 2993,13028 2993,13035 2993,13040 2993,13042 2993,13043 2993,13044 2992,13052 2989,13067 2987,13082 2986,13090 2986,13091 2986,13092 2984,13095 2981,13102 2977,13110 2972,13120 2964,13132 2956,13142 2951,13148 2950,13150 2948,13151 2942,13156 2932,13164 2921,13172 2915,13176 2913,13177 2910,13178 2904,13181 2891,13186 2877,13190 2865,13192 2856,13193 2848,13193 2844,13193 2843,13193 2842,13193 2839,13193 2833,13193 2824,13193 2811,13193 2793,13193 2771,13193 2742,13193 2708,13193 2667,13193 2621,13193 2567,13193 2507,13193 2440,13193 2367,13193 2288,13193 2204,13193 2114,13193 2019,13193 1920,13193 1818,13193 1713,13193 1607,13193 1500,13193 1392,13193 1286,13193 1181,13193 1079,13193 980,13193 885,13193 795,13193 711,13193 632,13193 559,13193 492,13193 432,13193 378,13193 332,13193 291,13193 257,13193 228,13193 206,13193 188,13193 175,13193 166,13193 160,13193 157,13193 156,13193 155,13193 147,13192 132,13189 117,13187 109,13186 108,13186 107,13186 104,13184 97,13181 89,13177 79,13172 67,13164 57,13156 51,13151 49,13150 48,13148 43,13142 35,13132 27,13121 23,13115 22,13113 21,13110 18,13104 13,13091 9,13077 7,13065 6,13056 6,13048 6,13044 6,13043 6,13042 6,13040 6,13035 6,13028 6,13018 6,13004 6,12986 6,12963 6,12936 6,12903 6,12865 6,12820 6,12770 6,12714 6,12652 6,12583 6,12508 6,12428 6,12341 6,12248 6,12151 6,12048 6,11940 6,11828 6,11713 6,11594 6,11473 6,11349 6,11225 6,11100 6,10974 6,10850 6,10726 6,10605 6,10486 6,10371 6,10259 6,10151 6,10048 6,9951 6,9858 6,9771 6,9691 6,9616 6,9547 6,9485 6,9429 6,9379 6,9334 6,9296 6,9263 6,9236 6,9213 6,9195 6,9181 6,9171 6,9164 6,9159 6,9157 6,9156 6,9155 7,9147 10,9132 12,9117 13,9109 13,9108 13,9107 15,9104 18,9097 22,9089 27,9079 35,9067 43,9057 48,9051 49,9049 51,9048 57,9043 67,9035 78,9027 84,9023 86,9022 89,9021 95,9018 108,9013 122,9009 134,9007 143,9006 151,9006 155,9006 156,9006 " />
    <!-- Line -->
    <!--  spline  -->
    <polyline
       id="polyline6"
       style="stroke:#000000;stroke-width:0; stroke-linejoin:bevel; stroke-linecap:butt; fill:#000000; "
       points="300,9150 301,9150 304,9150 310,9150 319,9150 332,9150 350,9150 373,9150 401,9150 435,9150 475,9150 522,9150 575,9150 634,9150 700,9150 771,9150 848,9150 931,9150 1018,9150 1109,9150 1204,9150 1301,9150 1400,9150 1500,9150 1600,9150 1699,9150 1796,9150 1891,9150 1982,9150 2069,9150 2152,9150 2229,9150 2300,9150 2366,9150 2425,9150 2478,9150 2525,9150 2565,9150 2599,9150 2627,9150 2650,9150 2668,9150 2681,9150 2690,9150 2696,9150 2699,9150 2700,9150 2701,9150 2709,9151 2724,9154 2738,9156 2746,9157 2747,9157 2748,9157 2751,9159 2758,9161 2766,9165 2776,9170 2788,9178 2799,9186 2804,9191 2806,9193 2808,9195 2813,9200 2821,9211 2829,9222 2832,9228 2834,9230 2835,9233 2837,9239 2842,9252 2846,9266 2848,9278 2849,9287 2850,9295 2850,9299 2850,9300 2850,9301 2850,9303 2850,9308 2850,9315 2850,9325 2850,9340 2850,9358 2850,9381 2850,9409 2850,9442 2850,9481 2850,9526 2850,9576 2850,9633 2850,9696 2850,9764 2850,9839 2850,9920 2850,10007 2850,10099 2850,10196 2850,10298 2850,10404 2850,10514 2850,10627 2850,10743 2850,10861 2850,10980 2850,11100 2850,11220 2850,11339 2850,11457 2850,11573 2850,11686 2850,11796 2850,11902 2850,12004 2850,12101 2850,12193 2850,12280 2850,12361 2850,12436 2850,12504 2850,12567 2850,12624 2850,12674 2850,12719 2850,12758 2850,12791 2850,12819 2850,12842 2850,12860 2850,12875 2850,12885 2850,12892 2850,12897 2850,12899 2850,12900 2850,12901 2848,12909 2846,12924 2844,12938 2842,12946 2842,12947 2842,12948 2840,12951 2838,12958 2834,12966 2829,12976 2821,12988 2813,12999 2808,13004 2806,13006 2804,13008 2799,13013 2788,13021 2777,13029 2771,13032 2769,13034 2766,13035 2760,13037 2747,13042 2733,13046 2722,13048 2712,13049 2705,13050 2701,13050 2700,13050 2699,13050 2696,13050 2690,13050 2681,13050 2668,13050 2650,13050 2627,13050 2599,13050 2565,13050 2525,13050 2478,13050 2425,13050 2366,13050 2300,13050 2229,13050 2152,13050 2069,13050 1982,13050 1891,13050 1796,13050 1699,13050 1600,13050 1500,13050 1400,13050 1301,13050 1204,13050 1109,13050 1018,13050 931,13050 848,13050 771,13050 700,13050 634,13050 575,13050 522,13050 475,13050 435,13050 401,13050 373,13050 350,13050 332,13050 319,13050 310,13050 304,13050 301,13050 300,13050 299,13050 291,13048 276,13046 261,13044 253,13042 252,13042 251,13042 248,13040 241,13038 233,13034 223,13029 211,13021 200,13013 195,13008 193,13006 191,13004 186,12999 178,12988 170,12977 167,12971 165,12969 164,12966 162,12960 157,12947 153,12933 151,12922 150,12912 150,12905 150,12901 150,12900 150,12899 150,12897 150,12892 150,12885 150,12875 150,12860 150,12842 150,12819 150,12791 150,12758 150,12719 150,12674 150,12624 150,12567 150,12504 150,12436 150,12361 150,12280 150,12193 150,12101 150,12004 150,11902 150,11796 150,11686 150,11573 150,11457 150,11339 150,11220 150,11100 150,10980 150,10861 150,10743 150,10627 150,10514 150,10404 150,10298 150,10196 150,10099 150,10007 150,9920 150,9839 150,9764 150,9696 150,9633 150,9576 150,9526 150,9481 150,9442 150,9409 150,9381 150,9358 150,9340 150,9325 150,9315 150,9308 150,9303 150,9301 150,9300 150,9299 151,9291 154,9276 156,9261 157,9253 157,9252 157,9251 159,9248 161,9241 165,9233 170,9223 178,9211 186,9200 191,9195 193,9193 195,9191 200,9186 211,9178 222,9170 228,9167 230,9165 233,9164 239,9162 252,9157 266,9153 278,9151 287,9150 295,9150 299,9150 300,9150 " />
  </g>
</svg>
